<?xml version="1.0" encoding="UTF-8"?>
<svg id="Ebene_1" xmlns="http://www.w3.org/2000/svg" viewBox="0 0 130.9 134.8">
  <g>
    <path d="M17.8,91.18c-.08.14-.11.31-.11.51,0,.04.01.09.05.15-.03-.06-.04-.1-.04-.14,0-.2.03-.38.1-.52ZM19.3,90.65c.27.04.57.1.9.19-.33-.1-.63-.16-.9-.19Z"/>
    <path d="M98.31,67.77c10.08,0,17.28-2.88,23.77-9.66,7.06-7.35,10.24-14.42,8.22-18.89-3.32-7.06-11.53-6.06-15.57,2.02-4.18,8.36-9.23,11.25-19.32,10.96-2.87-.09-5.01-.03-6.39.19h-.01s-1.88-1.63-1.88-1.63c1.54-.88,3.94-2.87,6.4-5.32,3.46-3.6,7.35-6.63,8.65-6.63,4.04,0,10.67-8.07,10.67-12.98,0-5.19-5.05-10.96-10.96-12.4-2.16-.58-6.2-3.17-8.79-5.77-7.93-7.93-20.76-9.95-31.72-4.9-3.46,1.44-8.65,2.6-11.82,2.45-14.42-.58-20.04,15.14-8.07,22.35,2.74,1.59,5.05,3.75,5.05,4.9,0,3.6,5.48,13.12,9.08,16l3.46,2.74-3.32,4.04c-1.87,2.16-3.46,5.48-3.46,7.5,0,4.76-2.45,4.33-5.48-.87-3.03-5.48-4.61-5.48-4.61-.14,0,2.16-1.3,5.77-3.03,7.93-1.59,2.02-2.6,4.33-2.02,5.19,1.87,3.03,14.71,10.81,21.63,13.26,4.04,1.44,7.06,3.32,6.92,4.33-.14,1.01-1.15,4.9-2.16,8.65l-1.87,6.78-12.98-6.2c-7.06-3.46-15.72-8.65-19.18-11.68-5.91-5.19-6.92-5.48-16.29-5.62-5.48-.14-9.95.29-9.95.72,0,1.44,16.29,17.88,20.33,20.47,3.32,2.31,3.75,3.32,3.17,8.79-.87,7.5,1.3,12.11,6.2,13.26,4.47,1.15,9.23-2.74,9.23-7.79,0-2.74.58-3.32,2.6-2.45,5.05,2.16,18.02,6.49,19.61,6.49,1.01,0,2.88,2.02,4.33,4.47,3.75,6.2,8.36,8.07,13.12,5.05,4.47-2.88,4.61-6.92.58-12.69-1.73-2.31-3.46-7.21-3.89-10.67-.58-5.19,0-7.35,3.03-11.97,3.17-4.76,4.76-5.77,10.38-6.49,6.34-1.01,29.56-11.82,29.56-13.84,0-1.73-10.24-5.77-14.85-5.77-2.45,0-7.35,1.01-10.67,2.31-3.46,1.3-6.49,2.16-6.78,1.87-.29-.29-.29-2.31.14-4.47.72-3.6,1.15-3.75,8.94-3.89ZM17.74,91.84c-.04-.06-.05-.11-.05-.15,0-.2.03-.37.11-.51-.07.14-.1.32-.1.52,0,.04.01.08.04.14ZM19.3,90.65c.27.03.57.09.9.19-.33-.09-.63-.15-.9-.19ZM78.96,48.88c-5.33,5.91-17.01,4.33-20.91-2.88h.01c-1.87-3.46-1.57-5.42,3.69-1.4,3.32,1.73,7.55,2.98,12.6,2.41,6.92-.87,7.06-.87,4.61,1.87ZM82.13,40.07c-1.44,5.62-13.86,3.33-21.92-.14-2.88-2.31-3.32-3.32-2.02-4.9,1.3-1.59.87-2.31-1.87-3.32-4.76-1.73-6.92-4.76-7.93-10.81h.01c-.72-4.32-.14-5.76,3.6-9.51,5.33-5.19,14.42-6.06,18.89-1.59,1.44,1.44,3.03,3.6,3.46,4.61.58,1.44,1.15,1.59,2.02.43,5.62-7.5,16.15-4.76,21.48,5.48,3.89,7.5-2.6,17.01-11.39,17.01-2.31,0-3.75,1.01-4.33,2.74Z"/>
    <path d="M127.11,106.12c-1.73,3.46-4.61,7.36-6.34,8.51-5.19,3.31-17.88,7.93-25.52,9.08-5.91,1.01-6.92.72-6.92-1.15,0-1.3-1.29-4.32-2.88-6.63-1.58-2.45-2.88-4.76-2.88-5.19,0-.58,3.03-1.44,6.92-2.02,13.84-1.88,32.01-9.23,36.48-14.71h-.01c4.9-5.77,5.62,2.74,1.15,12.11Z"/>
    <path d="M58.64,17.89c-1.15,3.03.29,6.49,2.74,6.49,3.03,0,5.48-3.6,4.47-6.34-1.15-2.88-6.2-3.03-7.21-.14h0Z"/>
    <path d="M81.71,22.07c-1.44,3.75.58,6.92,4.04,6.34,2.45-.29,3.32-1.44,3.32-4.04s-.87-3.75-3.32-4.04c-1.87-.29-3.6.43-4.04,1.73h0Z"/>
    <path d="M.1,50.62c.29,6.63.87,12.26,1.01,12.4,1.3,1.44,11.1-3.17,16-7.5l5.62-4.76-6.49-3.32c-3.6-1.73-8.22-4.47-10.38-5.91-2.02-1.59-4.33-2.74-5.05-2.74-.58,0-1.01,5.33-.72,11.82h0Z"/>
  </g>
  <path d="M67.94,33.12c-.9.46-2,.13-2.49-.75l-.03-.05h0c-.36-.71-.24-1.53.24-2.09l.16-.16c.12-.11.26-.21.42-.29.53-.27,5.13-.47,5.13-.47,0,0-2.89,3.54-3.42,3.81h-.01Z"/>
  <path d="M75.49,34.9c.6.82,1.73,1.01,2.56.44l.05-.03h0c.63-.47.89-1.26.72-1.97l-.07-.21c-.06-.15-.14-.31-.24-.45-.35-.48-4.38-2.72-4.38-2.72,0,0,1,4.46,1.35,4.94h0Z"/>
  <path d="M17.7,91.7s.01.08.04.14c-.04-.06-.05-.11-.05-.15,0-.2.03-.37.11-.51-.07.14-.1.32-.1.52Z"/>
  <path d="M18.64,90.65c-.13.01-.25.04-.35.08.11-.04.22-.07.35-.08Z"/>
  <path d="M18.02,90.89c.08-.07.17-.12.27-.16-.1.04-.19.09-.27.16Z"/>
  <path d="M20.2,90.84c-.33-.09-.63-.15-.9-.19.27.03.57.09.9.19Z"/>
  <path d="M86.12,51.2c-.22.06-.39.06-.52,0,0,0-.01,0-.01,0,.13.06.3.06.52,0h.01Z"/>
</svg>