<svg xmlns="http://www.w3.org/2000/svg" id="Ebene_1" viewBox="0 0 130.88 134.8">
  <g>
    <path d="M98.28,67.78c10.09,0,17.3-2.88,23.79-9.66,7.06-7.35,10.24-14.42,8.22-18.89-3.32-7.06-11.53-6.06-15.57,2.02-4.18,8.36-9.23,11.25-19.32,10.96-2.88-.09-5.02-.03-6.4.19-.53.09-.95.2-1.27.33-1.38.59-.45,1.64,2.77,3.09,8.65,4.04,19.18.29,27.39-9.52,4.47-5.33,6.49-5.91,6.49-1.44s-11.68,14.99-18.31,16.87c-3.03.87-7.5,1.59-10.09,1.59-8.94,0-13.99,10.67-7.21,15.14,2.6,1.59,4.47,1.73,8.22.72,6.34-1.87,10.09-1.87,10.09,0,0,2.02-7.5,5.62-14.42,6.63-15.43,2.45-22.92,18.31-15.86,33.88,3.75,8.51,1.44,10.53-4.76,4.47-3.32-3.17-8.07-5.62-14.85-7.5-12.83-3.75-14.42-3.6-18.74.72-2.02,2.02-4.18,3.32-4.76,2.88-.72-.29-1.59-3.6-2.02-7.35-.58-5.48-1.87-7.79-7.35-13.41-3.6-3.75-6.63-7.21-6.63-7.79,0-2.45,5.05-.58,11.97,4.61,9.23,7.06,24.22,14.56,28.84,14.56s9.23-5.19,10.81-12.54c1.73-7.64-.43-11.1-9.37-14.99-13.99-5.91-19.61-13.55-10.96-14.56,2.74-.29,5.19-2.31,8.07-6.63,4.04-6.06,4.33-6.2,10.09-5.33,5.05.72,7.06.29,11.53-2.74,3.03-2.16,6.2-3.46,6.92-2.88.13.06.3.06.52,0,.27-.06.61-.22.99-.43,1.54-.87,3.95-2.87,6.42-5.33,3.46-3.6,7.35-6.63,8.65-6.63,4.04,0,10.67-8.07,10.67-12.98,0-5.19-5.05-10.96-10.96-12.4-2.16-.58-6.2-3.17-8.79-5.77-7.93-7.93-20.76-9.95-31.72-4.9-3.46,1.44-8.65,2.6-11.82,2.45-14.42-.58-20.04,15.14-8.07,22.35,2.74,1.59,5.05,3.75,5.05,4.9,0,3.6,5.48,13.12,9.08,16l3.46,2.74-3.32,4.04c-1.87,2.16-3.46,5.48-3.46,7.5,0,4.76-2.45,4.33-5.48-.87-3.03-5.48-4.61-5.48-4.61-.14,0,2.16-1.3,5.77-3.03,7.93-1.59,2.02-2.6,4.33-2.02,5.19,1.87,3.03,14.71,10.81,21.63,13.26,4.04,1.44,7.06,3.32,6.92,4.33-.14,1.01-1.15,4.9-2.16,8.65l-1.87,6.78-12.98-6.2c-7.06-3.46-15.72-8.65-19.18-11.68-5.91-5.19-6.92-5.48-16.29-5.62-5.48-.14-9.95.29-9.95.72,0,1.44,16.29,17.88,20.33,20.47,3.32,2.31,3.75,3.32,3.17,8.79-.87,7.5,1.3,12.11,6.2,13.26,4.47,1.15,9.23-2.74,9.23-7.79,0-2.74.58-3.32,2.6-2.45,5.05,2.16,18.02,6.49,19.61,6.49,1.01,0,2.88,2.02,4.33,4.47,3.75,6.2,8.36,8.07,13.12,5.05,4.47-2.88,4.61-6.92.58-12.69-1.73-2.31-3.46-7.21-3.89-10.67-.58-5.19,0-7.35,3.03-11.97,3.17-4.76,4.76-5.77,10.38-6.49,6.34-1.01,29.56-11.82,29.56-13.84,0-1.73-10.24-5.77-14.85-5.77-2.45,0-7.35,1.01-10.67,2.31-3.46,1.3-6.49,2.16-6.78,1.87-.29-.29-.29-2.31.14-4.47.72-3.6,1.15-3.75,8.94-3.89ZM48.39,20.92c-.72-4.33-.14-5.77,3.6-9.52,5.33-5.19,14.42-6.06,18.89-1.59,1.44,1.44,3.03,3.6,3.46,4.61.58,1.44,1.15,1.59,2.02.43,5.62-7.5,16.15-4.76,21.48,5.48,3.89,7.5-2.6,17.01-11.39,17.01-2.31,0-3.75,1.01-4.33,2.74-1.44,5.62-13.86,3.33-21.92-.14-2.88-2.31-3.32-3.32-2.02-4.9,1.3-1.59.87-2.31-1.87-3.32-4.76-1.73-6.92-4.76-7.93-10.81ZM58.05,46.01c-1.87-3.46-1.57-5.42,3.69-1.4,3.32,1.73,7.55,2.98,12.6,2.41,6.92-.87,7.06-.87,4.61,1.87-5.33,5.91-17.01,4.33-20.91-2.88Z" fill="#ffffff"/>
    <path d="M58.63,17.9c-1.15,3.03.29,6.49,2.74,6.49,3.03,0,5.48-3.6,4.47-6.34-1.15-2.88-6.2-3.03-7.21-.14Z" fill="#ffffff"/>
    <path d="M81.7,22.08c-1.44,3.75.58,6.92,4.04,6.34,2.45-.29,3.32-1.44,3.32-4.04s-.87-3.75-3.32-4.04c-1.87-.29-3.6.43-4.04,1.73Z" fill="#ffffff"/>
    <path d="M.09,50.63c.29,6.63.87,12.26,1.01,12.4,1.3,1.44,11.1-3.17,16-7.5l5.62-4.76-6.49-3.32c-3.6-1.73-8.22-4.47-10.38-5.91-2.02-1.59-4.33-2.74-5.05-2.74-.58,0-1.01,5.33-.72,11.82Z" fill="#ffffff"/>
    <path d="M125.96,94.02c-4.47,5.48-22.64,12.83-36.48,14.71-3.89.58-6.92,1.44-6.92,2.02,0,.43,1.3,2.74,2.88,5.19,1.59,2.31,2.88,5.33,2.88,6.63,0,1.87,1.01,2.16,6.92,1.15,7.64-1.15,20.33-5.77,25.52-9.08,1.73-1.15,4.61-5.05,6.34-8.51,4.47-9.37,3.75-17.88-1.15-12.11ZM117.6,109.45c-6.34,5.62-23.5,10.24-24.65,6.49-.58-1.73.43-2.16,14.13-6.78,14.42-4.9,16-4.76,10.53.29Z" fill="#ffffff"/>
    <path d="M117.6,109.45c-6.34,5.62-23.5,10.24-24.65,6.49-.58-1.73.43-2.16,14.13-6.78,14.42-4.9,16-4.76,10.53.29Z" fill="#ffffff"/>
  </g>
  <path d="M67.93,33.13c-.9.46-2,.13-2.49-.75l-.03-.05h0c-.36-.71-.24-1.53.24-2.09l.16-.16c.12-.11.26-.21.42-.29.53-.27,5.13-.47,5.13-.47,0,0-2.89,3.54-3.42,3.81Z" fill="#ffffff"/>
  <path d="M75.48,34.91c.6.82,1.73,1.01,2.56.44l.05-.03h0c.63-.47.89-1.26.72-1.97l-.07-.21c-.06-.15-.14-.31-.24-.45-.35-.48-4.38-2.72-4.38-2.72,0,0,1,4.46,1.35,4.94Z" fill="#ffffff"/>
  <path d="M88.76,78.45c2.6,1.59,4.47,1.73,8.22.72,6.34-1.87,10.09-1.87,10.09,0,0,2.02-7.5,5.62-14.42,6.63-15.43,2.45-22.92,18.31-15.86,33.88,3.75,8.51,1.44,10.53-4.76,4.47-3.32-3.17-8.07-5.62-14.85-7.5-12.83-3.75-14.42-3.6-18.74.72-2.02,2.02-4.18,3.32-4.76,2.88-.72-.29-1.59-3.6-2.02-7.35-.58-5.48-1.87-7.79-7.35-13.41-3.6-3.75-6.63-7.21-6.63-7.79,0-2.45,5.05-.58,11.97,4.61,9.23,7.06,24.22,14.56,28.84,14.56s9.23-5.19,10.81-12.54c1.73-7.64-.43-11.1-9.37-14.99-13.99-5.91-19.61-13.55-10.96-14.56,2.74-.29,5.19-2.31,8.07-6.63,4.04-6.06,4.33-6.2,10.09-5.33,5.05.72,7.06.29,11.53-2.74,3.03-2.16,6.2-3.46,6.92-2.88.13.06.3.06.52,0,.42.5.94,1.04,1.61,1.53-1.38.59-.45,1.64,2.77,3.09,8.65,4.04,19.18.29,27.39-9.52,4.47-5.33,6.49-5.91,6.49-1.44s-11.68,14.99-18.31,16.87c-3.03.87-7.5,1.59-10.09,1.59-8.94,0-13.99,10.67-7.21,15.14Z" fill="#ffffff"/>
  <path d="M91.29,54.37c-1.5-.36-2.65-.97-3.56-1.64-.68-.49-1.2-1.02-1.61-1.53-1.05-1.3-1.36-2.47-1.36-2.47l2.35,2.03,1.89,1.63,2.29,1.98Z" fill="#ffffff"/>
</svg>